HIERARCHY
ROOT Joint1
{
	OFFSET 0.000000 0.000000 0.000000
	CHANNELS 6 Xposition Yposition Zposition Xrotation Yrotation Zrotation
	JOINT Joint2
	{
		OFFSET -0.000000 0.000000 1.456275
		CHANNELS 6 Xposition Yposition Zposition Xrotation Yrotation Zrotation
		JOINT Joint3
		{
			OFFSET -0.000000 0.000002 1.471446
			CHANNELS 6 Xposition Yposition Zposition Xrotation Yrotation Zrotation
			JOINT Joint4
			{
				OFFSET 0.625745 0.000000 0.917755
				CHANNELS 6 Xposition Yposition Zposition Xrotation Yrotation Zrotation
				JOINT Joint5
				{
					OFFSET -0.629534 0.000001 0.940221
					CHANNELS 6 Xposition Yposition Zposition Xrotation Yrotation Zrotation
					JOINT Joint6
					{
						OFFSET -0.000001 0.113772 1.960660
						CHANNELS 6 Xposition Yposition Zposition Xrotation Yrotation Zrotation
						JOINT Joint7
						{
							OFFSET -0.669733 -0.113771 0.388340
							CHANNELS 6 Xposition Yposition Zposition Xrotation Yrotation Zrotation
							End Site
							{
								OFFSET 0.005509 0.005509 0.438980
							}
						}
					}
				}
			}
		}
	}
}
MOTION
Frames: 27
Frame Time: 0.041667
0.000000 0.000000 0.000000 -0.000000 1.019410 -108.056844 -0.000000 0.000000 1.456275 -0.000001 -36.696656 -0.000000 -0.000000 0.000002 1.471446 -0.000007 -1.133458 114.635627 0.625745 0.000000 0.917755 0.000003 54.473860 0.000002 -0.629534 0.000001 0.940221 -0.000002 1.709733 111.426231 -0.000001 0.113772 1.960660 -88.303882 122.306203 0.000003 -0.669733 -0.113771 0.388340 -0.185327 1.675812 -14.241716 
0.000000 0.000000 0.000000 -0.000000 1.019410 -108.002489 -0.000000 -0.000000 1.456275 0.000001 -36.700823 0.000002 -0.000000 0.000002 1.471446 -0.000007 -1.133456 114.577953 0.625745 0.000000 0.917755 0.000005 54.514376 0.000003 -0.629534 0.000001 0.940220 -0.000002 1.709737 111.370182 -0.000001 0.113773 1.960661 -88.303882 122.289947 0.000002 -0.669733 -0.113771 0.388340 -0.184187 1.676496 -14.166728 
0.000000 0.000000 0.000000 -0.000000 1.019410 -107.903629 -0.000000 0.000000 1.456275 -0.000000 -36.708397 0.000002 -0.000001 0.000002 1.471446 -0.000006 -1.133459 114.473035 0.625745 0.000000 0.917755 0.000003 54.588071 0.000002 -0.629534 0.000001 0.940221 0.000001 1.709735 111.268221 -0.000001 0.113772 1.960660 -88.303875 122.260372 0.000002 -0.669734 -0.113771 0.388340 -0.182104 1.677738 -14.030304 
0.000000 0.000000 0.000000 -0.000000 1.019410 -107.753467 -0.000000 -0.000000 1.456275 -0.000000 -36.719910 0.000001 -0.000000 0.000002 1.471446 -0.000007 -1.133453 114.313686 0.625745 0.000000 0.917755 0.000000 54.700011 0.000001 -0.629534 0.000001 0.940221 0.000001 1.709737 111.113347 -0.000001 0.113773 1.960660 -88.303882 122.215443 0.000004 -0.669734 -0.113771 0.388339 -0.178953 1.679637 -13.823095 
0.000000 0.000000 0.000000 -0.000000 1.019410 -107.545222 -0.000000 0.000000 1.456275 0.000000 -36.735875 -0.000000 -0.000000 0.000002 1.471446 -0.000007 -1.133454 114.092702 0.625745 0.000000 0.917755 0.000003 54.855240 0.000003 -0.629534 0.000001 0.940221 0.000000 1.709735 110.898578 -0.000001 0.113772 1.960660 -88.303875 122.153139 0.000001 -0.669733 -0.113771 0.388340 -0.174592 1.682289 -13.535733 
0.000000 0.000000 0.000000 -0.000000 1.019410 -107.272110 -0.000000 0.000000 1.456275 -0.000001 -36.756810 -0.000002 -0.000000 0.000002 1.471446 -0.000008 -1.133451 113.802884 0.625744 0.000000 0.917755 0.000002 55.058817 0.000003 -0.629533 0.000001 0.940221 -0.000003 1.709738 110.616915 -0.000001 0.113772 1.960661 -88.303882 122.071436 -0.000003 -0.669733 -0.113771 0.388340 -0.168893 1.685798 -13.158878 
0.000000 0.000000 0.000000 -0.000000 1.019410 -106.927363 -0.000000 -0.000000 1.456275 0.000000 -36.783236 0.000001 -0.000000 0.000002 1.471446 -0.000008 -1.133453 113.437045 0.625745 0.000001 0.917755 0.000000 55.315796 0.000002 -0.629534 0.000001 0.940221 -0.000003 1.709737 110.261363 -0.000001 0.113772 1.960661 -88.303875 121.968286 0.000004 -0.669733 -0.113771 0.388341 -0.161733 1.690284 -12.683167 
0.000000 0.000000 0.000000 -0.000000 1.019410 -106.504198 -0.000000 -0.000000 1.456275 0.000001 -36.815683 0.000002 -0.000000 0.000002 1.471446 -0.000008 -1.133454 112.987974 0.625745 0.000000 0.917755 0.000003 55.631245 0.000001 -0.629534 0.000000 0.940221 0.000000 1.709737 109.824941 -0.000001 0.113773 1.960661 -88.303875 121.841682 0.000002 -0.669733 -0.113771 0.388340 -0.152997 1.695872 -12.099238 
0.000000 0.000000 0.000000 -0.000000 1.019410 -105.995834 -0.000000 0.000000 1.456275 0.000001 -36.854656 -0.000001 -0.000000 0.000002 1.471446 -0.000006 -1.133455 112.448505 0.625744 0.000000 0.917755 0.000002 56.010194 0.000001 -0.629534 0.000001 0.940221 0.000000 1.709738 109.300642 -0.000001 0.113772 1.960661 -88.303882 121.689587 0.000001 -0.669733 -0.113771 0.388341 -0.142576 1.702706 -11.397735 
0.000000 0.000000 0.000000 -0.000000 1.019410 -105.395481 -0.000000 0.000000 1.456275 0.000002 -36.900678 -0.000001 -0.000000 0.000002 1.471446 -0.000006 -1.133459 111.811419 0.625745 0.000000 0.917755 0.000002 56.457719 0.000001 -0.629533 0.000001 0.940221 -0.000002 1.709737 108.681478 -0.000001 0.113773 1.960660 -88.303875 121.509967 -0.000002 -0.669733 -0.113771 0.388341 -0.130378 1.710928 -10.569306 
0.000000 0.000000 0.000000 -0.000000 1.019410 -104.696363 -0.000000 0.000000 1.456275 -0.000002 -36.954274 0.000001 -0.000000 0.000002 1.471446 -0.000007 -1.133455 111.069524 0.625744 0.000000 0.917755 0.000002 56.978859 0.000001 -0.629533 0.000001 0.940221 0.000001 1.709735 107.960456 -0.000001 0.113772 1.960661 -88.303882 121.300799 0.000003 -0.669733 -0.113771 0.388341 -0.116325 1.720733 -9.604592 
0.000000 0.000000 0.000000 -0.000000 1.019410 -103.900182 -0.000000 0.000000 1.456275 0.000000 -37.015309 0.000000 -0.000000 0.000002 1.471446 -0.000007 -1.133454 110.224616 0.625744 0.000000 0.917755 -0.000001 57.572348 0.000002 -0.629534 0.000001 0.940221 -0.000002 1.709737 107.139331 -0.000001 0.113771 1.960661 -88.303882 121.062590 0.000005 -0.669733 -0.113771 0.388339 -0.100529 1.732187 -8.505933 
0.000000 0.000000 0.000000 -0.000000 1.019410 -103.042542 -0.000000 -0.000000 1.456275 0.000000 -37.081063 0.000000 -0.000000 0.000002 1.471445 -0.000006 -1.133453 109.314514 0.625744 0.000000 0.917755 0.000002 58.211660 0.000000 -0.629534 0.000001 0.940221 0.000002 1.709736 106.254815 -0.000001 0.113772 1.960660 -88.303875 120.805993 0.000005 -0.669733 -0.113772 0.388339 -0.083759 1.744859 -7.322463 
0.000000 0.000000 0.000000 -0.000000 1.019410 -102.167547 -0.000000 0.000000 1.456275 0.000000 -37.148142 0.000001 -0.000000 0.000002 1.471445 -0.000006 -1.133455 108.385970 0.625744 0.000000 0.917755 0.000000 58.863909 0.000001 -0.629534 0.000001 0.940221 -0.000002 1.709738 105.352410 -0.000001 0.113772 1.960661 -88.303882 120.544205 0.000003 -0.669733 -0.113771 0.388341 -0.066925 1.758141 -6.115034 
0.000000 0.000000 0.000000 -0.000000 1.019410 -101.319272 -0.000000 0.000000 1.456275 -0.000001 -37.213166 0.000000 -0.000000 0.000002 1.471446 -0.000007 -1.133454 107.485785 0.625745 0.000000 0.917755 0.000000 59.496227 0.000002 -0.629533 0.000001 0.940221 -0.000002 1.709737 104.477552 -0.000001 0.113772 1.960660 -88.303875 120.290423 0.000003 -0.669734 -0.113771 0.388341 -0.050870 1.771350 -4.944483 
0.000000 0.000000 0.000000 -0.000000 1.019410 -100.524115 -0.000000 0.000000 1.456275 0.000000 -37.274125 0.000001 -0.000001 0.000002 1.471446 -0.000007 -1.133458 106.641963 0.625745 0.000000 0.917755 0.000000 60.088958 0.000002 -0.629533 0.000001 0.940221 -0.000000 1.709736 103.657471 -0.000001 0.113772 1.960661 -88.303875 120.052500 0.000002 -0.669734 -0.113772 0.388340 -0.036074 1.784024 -3.847216 
0.000000 0.000000 0.000000 -0.000000 1.019410 -99.737639 -0.000000 -0.000000 1.456275 0.000000 -37.334422 -0.000000 -0.000000 0.000002 1.471446 -0.000007 -1.133451 105.807355 0.625745 0.000000 0.917755 -0.000001 60.675221 0.000002 -0.629534 0.000001 0.940221 -0.000001 1.709738 102.846352 -0.000001 0.113772 1.960660 -88.303875 119.817200 0.000004 -0.669733 -0.113771 0.388340 -0.021678 1.796842 -2.761925 
0.000000 0.000000 0.000000 -0.000000 1.019410 -98.897697 -0.000000 0.000000 1.456275 0.000000 -37.398813 0.000001 -0.000001 0.000002 1.471446 -0.000007 -1.133455 104.916043 0.625744 -0.000000 0.917755 0.000002 61.301337 0.000002 -0.629533 0.000001 0.940221 -0.000002 1.709736 101.980106 -0.000001 0.113773 1.960660 -88.303882 119.565917 0.000003 -0.669733 -0.113771 0.388340 -0.006576 1.810832 -1.602866 
0.000000 0.000000 0.000000 -0.000000 1.019410 -97.942181 -0.000000 -0.000000 1.456275 0.000000 -37.472064 0.000001 -0.000000 0.000002 1.471445 -0.000007 -1.133451 103.902053 0.625744 0.000000 0.917755 0.000004 62.013603 0.000001 -0.629533 0.000001 0.940221 0.000000 1.709738 100.994647 -0.000001 0.113772 1.960660 -88.303875 119.280033 0.000004 -0.669732 -0.113771 0.388340 0.010257 1.827106 -0.284297 
0.000000 0.000000 0.000000 -0.000000 1.019410 -96.838729 -0.000000 0.000000 1.456275 -0.000000 -37.556659 -0.000000 -0.000000 0.000002 1.471445 -0.000006 -1.133458 102.731086 0.625745 0.000001 0.917755 -0.000003 62.836149 0.000002 -0.629534 0.000001 0.940221 -0.000002 1.709735 99.856621 -0.000001 0.113772 1.960661 -88.303882 118.949903 0.000004 -0.669734 -0.113772 0.388340 0.029223 1.846384 1.238422 
0.000000 0.000000 0.000000 -0.000000 1.019410 -95.674168 -0.000000 0.000000 1.456275 -0.000000 -37.645933 0.000000 -0.000000 0.000002 1.471446 -0.000006 -1.133454 101.495259 0.625745 0.000000 0.917755 0.000001 63.704245 0.000002 -0.629534 0.000001 0.940221 -0.000002 1.709735 98.655560 -0.000001 0.113772 1.960660 -88.303875 118.601481 0.000005 -0.669733 -0.113771 0.388340 0.048675 1.867263 2.845482 
0.000000 0.000000 0.000000 -0.000000 1.019410 -94.565096 -0.000000 0.000000 1.456275 0.000000 -37.730959 -0.000000 -0.000000 0.000002 1.471446 -0.000006 -1.133454 100.318321 0.625744 0.000000 0.917755 0.000003 64.530978 0.000001 -0.629534 0.000001 0.940221 -0.000002 1.709734 97.511742 -0.000000 0.113773 1.960661 -88.303875 118.269657 0.000002 -0.669733 -0.113771 0.388340 0.066649 1.887654 4.375978 
0.000000 0.000000 0.000000 -0.000000 1.019410 -93.570764 -0.000000 0.000000 1.456275 0.000000 -37.807187 -0.000000 -0.000000 0.000002 1.471446 -0.000006 -1.133449 99.263139 0.625745 0.000001 0.917755 -0.000001 65.272184 0.000003 -0.629534 0.000001 0.940221 -0.000002 1.709733 96.486251 -0.000001 0.113772 1.960660 -88.303875 117.972161 0.000005 -0.669733 -0.113771 0.388340 0.082299 1.906329 5.748146 
0.000000 0.000000 0.000000 -0.000000 1.019410 -92.520937 -0.000000 -0.000000 1.456275 0.000000 -37.887671 0.000000 -0.000000 0.000002 1.471446 -0.000006 -1.133455 98.149074 0.625745 0.000000 0.917755 -0.000007 66.054753 0.000003 -0.629533 0.000001 0.940221 -0.000003 1.709734 95.403529 -0.000000 0.113772 1.960660 -88.303875 117.658068 0.000002 -0.669733 -0.113771 0.388339 0.098327 1.926452 7.196909 
0.000000 0.000000 0.000000 -0.000000 1.019410 -91.188005 -0.000000 -0.000000 1.456275 -0.000000 -37.989847 0.000000 -0.000000 0.000002 1.471446 -0.000006 -1.133453 96.734583 0.625744 0.000001 0.917755 0.000001 67.048354 0.000003 -0.629534 0.000001 0.940221 -0.000001 1.709735 94.028837 -0.000001 0.113772 1.960660 -88.303882 117.259267 0.000002 -0.669733 -0.113771 0.388340 0.117939 1.952569 9.036362 
0.000000 0.000000 0.000000 -0.000000 1.019410 -89.475430 -0.000000 0.000000 1.456275 -0.000000 -38.121147 0.000000 -0.000000 0.000002 1.471446 -0.000006 -1.133452 94.917220 0.625745 0.000000 0.917755 -0.000001 68.324950 0.000002 -0.629534 0.000001 0.940221 -0.000002 1.709735 92.262605 -0.000001 0.113772 1.960661 -88.303875 116.746921 0.000004 -0.669733 -0.113771 0.388340 0.141886 1.987031 11.399756 
0.000000 0.000000 0.000000 -0.000000 1.019410 -87.810913 -0.000000 0.000000 1.456275 -0.000000 -38.248749 0.000000 -0.000000 0.000002 1.471446 -0.000006 -1.133455 93.150851 0.625745 0.000000 0.917755 -0.000001 69.565729 0.000003 -0.629534 0.000001 0.940221 -0.000002 1.709734 90.545940 -0.000001 0.113772 1.960661 -88.303875 116.248891 0.000003 -0.669733 -0.113771 0.388341 0.163782 2.021438 13.696875 
